<svg width="938" height="328" viewBox="0 0 938 328" fill="none" xmlns="http://www.w3.org/2000/svg">
<path fill-rule="evenodd" clip-rule="evenodd" d="M87.271 226.917C87.271 224.845 88.0941 222.858 89.5592 221.392C91.0244 219.927 93.0115 219.104 95.0835 219.104H240.917C242.989 219.104 244.976 219.927 246.441 221.392C247.906 222.858 248.729 224.845 248.729 226.917C248.729 228.989 247.906 230.976 246.441 232.441C244.976 233.906 242.989 234.729 240.917 234.729H95.0835C93.0115 234.729 91.0244 233.906 89.5592 232.441C88.0941 230.976 87.271 228.989 87.271 226.917ZM118.521 258.167C118.521 256.095 119.344 254.108 120.809 252.642C122.274 251.177 124.261 250.354 126.333 250.354H209.667C211.739 250.354 213.726 251.177 215.191 252.642C216.656 254.108 217.479 256.095 217.479 258.167C217.479 260.239 216.656 262.226 215.191 263.691C213.726 265.156 211.739 265.979 209.667 265.979H126.333C124.261 265.979 122.274 265.156 120.809 263.691C119.344 262.226 118.521 260.239 118.521 258.167Z" fill="white"/>
<path d="M106.365 187.854C100.489 177.147 97.5035 165.095 97.7022 152.883C97.9009 140.672 101.277 128.722 107.498 118.212C113.719 107.702 122.57 98.994 133.18 92.9449C143.79 86.8957 155.792 83.7145 168.005 83.7145C180.219 83.7145 192.221 86.8957 202.831 92.9449C213.441 98.994 222.292 107.702 228.513 118.212C234.734 128.722 238.11 140.672 238.309 152.883C238.507 165.095 235.522 177.147 229.646 187.854H272.167C274.239 187.854 276.226 188.677 277.691 190.142C279.156 191.608 279.979 193.595 279.979 195.667C279.979 197.739 279.156 199.726 277.691 201.191C276.226 202.656 274.239 203.479 272.167 203.479H63.8335C61.7615 203.479 59.7744 202.656 58.3092 201.191C56.8441 199.726 56.021 197.739 56.021 195.667C56.021 193.595 56.8441 191.608 58.3092 190.142C59.7744 188.677 61.7615 187.854 63.8335 187.854H106.365Z" fill="white"/>
<path fill-rule="evenodd" clip-rule="evenodd" d="M168 42.0208C170.072 42.0208 172.059 42.8439 173.524 44.309C174.99 45.7742 175.813 47.7613 175.813 49.8333V60.25C175.813 62.322 174.99 64.3091 173.524 65.7743C172.059 67.2394 170.072 68.0625 168 68.0625C165.928 68.0625 163.941 67.2394 162.476 65.7743C161.011 64.3091 160.188 62.322 160.188 60.25V49.8333C160.188 47.7613 161.011 45.7742 162.476 44.309C163.941 42.8439 165.928 42.0208 168 42.0208ZM88.8231 74.8229C90.2879 73.3599 92.2736 72.5381 94.3439 72.5381C96.4142 72.5381 98.3999 73.3599 99.8647 74.8229L103.958 78.9062C105.382 80.379 106.171 82.3521 106.154 84.4005C106.137 86.449 105.316 88.4088 103.869 89.858C102.421 91.3072 100.462 92.1298 98.4132 92.1485C96.3648 92.1673 94.3909 91.3807 92.9168 89.9583L88.8231 85.8646C87.3601 84.3997 86.5383 82.414 86.5383 80.3437C86.5383 78.2734 87.3601 76.2877 88.8231 74.8229ZM247.177 74.8229C248.64 76.2877 249.462 78.2734 249.462 80.3437C249.462 82.414 248.64 84.3997 247.177 85.8646L243.083 89.9583C241.602 91.3383 239.644 92.0896 237.62 92.0539C235.596 92.0182 233.665 91.1983 232.233 89.7669C230.802 88.3355 229.982 86.4044 229.946 84.3804C229.911 82.3565 230.662 80.3976 232.042 78.9166L236.136 74.8229C237.6 73.3599 239.586 72.5381 241.656 72.5381C243.727 72.5381 245.712 73.3599 247.177 74.8229ZM56.021 154C56.021 151.928 56.8441 149.941 58.3092 148.476C59.7744 147.011 61.7615 146.187 63.8335 146.187H74.2502C76.3222 146.187 78.3093 147.011 79.7744 148.476C81.2396 149.941 82.0627 151.928 82.0627 154C82.0627 156.072 81.2396 158.059 79.7744 159.524C78.3093 160.989 76.3222 161.812 74.2502 161.812H63.8335C61.7615 161.812 59.7744 160.989 58.3092 159.524C56.8441 158.059 56.021 156.072 56.021 154ZM253.938 154C253.938 151.928 254.761 149.941 256.226 148.476C257.691 147.011 259.678 146.187 261.75 146.187H272.167C274.239 146.187 276.226 147.011 277.691 148.476C279.156 149.941 279.979 151.928 279.979 154C279.979 156.072 279.156 158.059 277.691 159.524C276.226 160.989 274.239 161.812 272.167 161.812H261.75C259.678 161.812 257.691 160.989 256.226 159.524C254.761 158.059 253.938 156.072 253.938 154Z" fill="white"/>
<path d="M380.243 96.2727H395.619V143.503C395.619 148.806 394.353 153.446 391.82 157.423C389.31 161.401 385.795 164.502 381.273 166.727C376.751 168.929 371.483 170.03 365.47 170.03C359.433 170.03 354.154 168.929 349.632 166.727C345.11 164.502 341.595 161.401 339.085 157.423C336.576 153.446 335.321 148.806 335.321 143.503V96.2727H350.697V142.189C350.697 144.959 351.301 147.421 352.509 149.575C353.74 151.73 355.468 153.422 357.693 154.653C359.919 155.884 362.511 156.5 365.47 156.5C368.453 156.5 371.045 155.884 373.247 154.653C375.473 153.422 377.189 151.73 378.396 149.575C379.627 147.421 380.243 144.959 380.243 142.189V96.2727ZM415.409 96.2727L432.988 151.528H433.662L451.276 96.2727H468.321L443.25 169H423.435L398.328 96.2727H415.409ZM502.724 126.635V138.638H469.557V126.635H502.724ZM509.899 169V96.2727H525.276V128.339H526.234L552.406 96.2727H570.837L543.848 128.837L571.156 169H552.761L532.839 139.099L525.276 148.332V169H509.899ZM593.201 170.065C587.685 170.065 582.915 168.893 578.89 166.55C574.889 164.182 571.8 160.892 569.622 156.678C567.444 152.44 566.355 147.527 566.355 141.94C566.355 136.306 567.444 131.382 569.622 127.168C571.8 122.93 574.889 119.639 578.89 117.295C582.915 114.928 587.685 113.744 593.201 113.744C598.717 113.744 603.476 114.928 607.477 117.295C611.502 119.639 614.603 122.93 616.781 127.168C618.959 131.382 620.048 136.306 620.048 141.94C620.048 147.527 618.959 152.44 616.781 156.678C614.603 160.892 611.502 164.182 607.477 166.55C603.476 168.893 598.717 170.065 593.201 170.065ZM593.272 158.347C595.782 158.347 597.877 157.636 599.558 156.216C601.239 154.772 602.505 152.807 603.358 150.321C604.234 147.835 604.672 145.006 604.672 141.834C604.672 138.661 604.234 135.832 603.358 133.347C602.505 130.861 601.239 128.896 599.558 127.452C597.877 126.008 595.782 125.286 593.272 125.286C590.739 125.286 588.609 126.008 586.88 127.452C585.176 128.896 583.886 130.861 583.01 133.347C582.157 135.832 581.731 138.661 581.731 141.834C581.731 145.006 582.157 147.835 583.01 150.321C583.886 152.807 585.176 154.772 586.88 156.216C588.609 157.636 590.739 158.347 593.272 158.347ZM639.012 96.2727V169H623.885V96.2727H639.012ZM660.259 96.2727V169H645.131V96.2727H660.259ZM691.235 170.065C685.624 170.065 680.794 168.929 676.746 166.656C672.721 164.36 669.62 161.116 667.442 156.926C665.264 152.712 664.175 147.729 664.175 141.976C664.175 136.365 665.264 131.441 667.442 127.203C669.62 122.965 672.686 119.663 676.64 117.295C680.617 114.928 685.281 113.744 690.631 113.744C694.23 113.744 697.579 114.324 700.681 115.484C703.806 116.621 706.528 118.337 708.848 120.634C711.192 122.93 713.015 125.818 714.317 129.298C715.619 132.755 716.27 136.803 716.27 141.443V145.598H670.212V136.223H702.03C702.03 134.045 701.557 132.116 700.61 130.435C699.663 128.754 698.349 127.44 696.668 126.493C695.011 125.522 693.081 125.037 690.88 125.037C688.583 125.037 686.547 125.57 684.772 126.635C683.02 127.677 681.647 129.085 680.652 130.861C679.658 132.613 679.149 134.566 679.125 136.72V145.634C679.125 148.332 679.623 150.664 680.617 152.629C681.635 154.594 683.067 156.109 684.914 157.175C686.76 158.24 688.95 158.773 691.483 158.773C693.164 158.773 694.703 158.536 696.1 158.062C697.497 157.589 698.692 156.879 699.686 155.932C700.681 154.985 701.438 153.825 701.959 152.452L715.951 153.375C715.24 156.737 713.784 159.672 711.583 162.182C709.405 164.668 706.587 166.609 703.131 168.006C699.698 169.379 695.733 170.065 691.235 170.065ZM735.27 137.466V169H720.142V114.455H734.56V124.078H735.199C736.407 120.906 738.431 118.396 741.272 116.55C744.113 114.679 747.557 113.744 751.605 113.744C755.393 113.744 758.696 114.573 761.513 116.23C764.33 117.887 766.52 120.255 768.083 123.332C769.645 126.386 770.426 130.032 770.426 134.27V169H755.299V136.969C755.322 133.631 754.47 131.027 752.742 129.156C751.014 127.262 748.634 126.315 745.604 126.315C743.568 126.315 741.769 126.753 740.206 127.629C738.667 128.505 737.46 129.784 736.584 131.464C735.732 133.122 735.294 135.122 735.27 137.466Z" fill="white"/>
<path d="M345.051 235H332.161V198.636H345.158C348.815 198.636 351.964 199.364 354.604 200.82C357.243 202.264 359.273 204.342 360.694 207.053C362.126 209.763 362.842 213.007 362.842 216.783C362.842 220.571 362.126 223.826 360.694 226.548C359.273 229.271 357.232 231.36 354.568 232.816C351.917 234.272 348.744 235 345.051 235ZM339.849 228.413H344.732C347.004 228.413 348.916 228.01 350.467 227.205C352.029 226.388 353.201 225.128 353.982 223.423C354.775 221.707 355.172 219.493 355.172 216.783C355.172 214.096 354.775 211.9 353.982 210.195C353.201 208.491 352.035 207.236 350.484 206.431C348.934 205.626 347.022 205.224 344.749 205.224H339.849V228.413ZM373.172 235.515C371.432 235.515 369.882 235.213 368.52 234.609C367.159 233.994 366.082 233.088 365.289 231.893C364.508 230.685 364.117 229.182 364.117 227.383C364.117 225.868 364.395 224.595 364.952 223.565C365.508 222.536 366.265 221.707 367.224 221.08C368.183 220.452 369.272 219.979 370.491 219.659C371.722 219.339 373.013 219.115 374.362 218.984C375.948 218.819 377.227 218.665 378.197 218.523C379.168 218.369 379.872 218.144 380.31 217.848C380.748 217.552 380.967 217.114 380.967 216.534V216.428C380.967 215.303 380.612 214.433 379.902 213.817C379.203 213.202 378.209 212.894 376.919 212.894C375.558 212.894 374.474 213.196 373.67 213.8C372.865 214.392 372.332 215.137 372.072 216.037L365.076 215.469C365.431 213.812 366.129 212.379 367.171 211.172C368.213 209.953 369.556 209.018 371.202 208.366C372.859 207.704 374.776 207.372 376.954 207.372C378.47 207.372 379.92 207.55 381.305 207.905C382.701 208.26 383.938 208.81 385.015 209.556C386.104 210.302 386.963 211.261 387.59 212.433C388.217 213.593 388.531 214.983 388.531 216.605V235H381.358V231.218H381.145C380.707 232.07 380.121 232.822 379.387 233.473C378.653 234.112 377.771 234.615 376.741 234.982C375.711 235.337 374.522 235.515 373.172 235.515ZM375.339 230.295C376.451 230.295 377.434 230.076 378.286 229.638C379.138 229.188 379.807 228.584 380.292 227.827C380.778 227.069 381.02 226.211 381.02 225.252V222.358C380.784 222.512 380.458 222.654 380.044 222.784C379.641 222.902 379.186 223.015 378.677 223.121C378.168 223.216 377.659 223.305 377.15 223.388C376.641 223.459 376.179 223.524 375.765 223.583C374.877 223.713 374.102 223.92 373.439 224.205C372.776 224.489 372.261 224.873 371.894 225.359C371.527 225.832 371.344 226.424 371.344 227.134C371.344 228.164 371.716 228.951 372.462 229.496C373.22 230.028 374.179 230.295 375.339 230.295ZM405.906 207.727V213.409H389.482V207.727H405.906ZM393.21 201.193H400.774V226.619C400.774 227.318 400.881 227.862 401.094 228.253C401.307 228.632 401.603 228.898 401.982 229.052C402.372 229.206 402.822 229.283 403.331 229.283C403.686 229.283 404.041 229.253 404.396 229.194C404.752 229.123 405.024 229.07 405.213 229.034L406.403 234.663C406.024 234.781 405.491 234.917 404.805 235.071C404.118 235.237 403.284 235.337 402.301 235.373C400.478 235.444 398.88 235.201 397.507 234.645C396.146 234.089 395.087 233.224 394.329 232.053C393.571 230.881 393.199 229.401 393.21 227.614V201.193ZM415.61 235.515C413.87 235.515 412.319 235.213 410.958 234.609C409.597 233.994 408.519 233.088 407.726 231.893C406.945 230.685 406.555 229.182 406.555 227.383C406.555 225.868 406.833 224.595 407.389 223.565C407.945 222.536 408.703 221.707 409.662 221.08C410.621 220.452 411.71 219.979 412.929 219.659C414.16 219.339 415.45 219.115 416.8 218.984C418.386 218.819 419.664 218.665 420.635 218.523C421.605 218.369 422.31 218.144 422.748 217.848C423.186 217.552 423.405 217.114 423.405 216.534V216.428C423.405 215.303 423.05 214.433 422.339 213.817C421.641 213.202 420.647 212.894 419.356 212.894C417.995 212.894 416.912 213.196 416.107 213.8C415.302 214.392 414.769 215.137 414.509 216.037L407.513 215.469C407.868 213.812 408.567 212.379 409.608 211.172C410.65 209.953 411.994 209.018 413.639 208.366C415.296 207.704 417.214 207.372 419.392 207.372C420.907 207.372 422.357 207.55 423.742 207.905C425.139 208.26 426.376 208.81 427.453 209.556C428.542 210.302 429.4 211.261 430.028 212.433C430.655 213.593 430.969 214.983 430.969 216.605V235H423.795V231.218H423.582C423.144 232.07 422.558 232.822 421.824 233.473C421.09 234.112 420.209 234.615 419.179 234.982C418.149 235.337 416.959 235.515 415.61 235.515ZM417.776 230.295C418.889 230.295 419.871 230.076 420.724 229.638C421.576 229.188 422.245 228.584 422.73 227.827C423.215 227.069 423.458 226.211 423.458 225.252V222.358C423.221 222.512 422.896 222.654 422.481 222.784C422.079 222.902 421.623 223.015 421.114 223.121C420.605 223.216 420.096 223.305 419.587 223.388C419.078 223.459 418.617 223.524 418.202 223.583C417.314 223.713 416.539 223.92 415.876 224.205C415.213 224.489 414.698 224.873 414.331 225.359C413.965 225.832 413.781 226.424 413.781 227.134C413.781 228.164 414.154 228.951 414.9 229.496C415.657 230.028 416.616 230.295 417.776 230.295ZM457.075 207.727V213.409H440.243V207.727H457.075ZM444.096 235V205.756C444.096 203.78 444.481 202.14 445.25 200.838C446.031 199.536 447.097 198.559 448.446 197.908C449.795 197.257 451.328 196.932 453.045 196.932C454.205 196.932 455.264 197.021 456.223 197.198C457.194 197.376 457.916 197.536 458.389 197.678L457.04 203.359C456.744 203.265 456.377 203.176 455.939 203.093C455.513 203.01 455.075 202.969 454.625 202.969C453.512 202.969 452.737 203.229 452.299 203.75C451.861 204.259 451.642 204.975 451.642 205.898V235H444.096ZM470.042 235.533C467.284 235.533 464.899 234.947 462.887 233.775C460.886 232.591 459.341 230.946 458.252 228.839C457.163 226.72 456.619 224.264 456.619 221.47C456.619 218.653 457.163 216.191 458.252 214.084C459.341 211.965 460.886 210.32 462.887 209.148C464.899 207.964 467.284 207.372 470.042 207.372C472.8 207.372 475.179 207.964 477.18 209.148C479.192 210.32 480.743 211.965 481.832 214.084C482.921 216.191 483.465 218.653 483.465 221.47C483.465 224.264 482.921 226.72 481.832 228.839C480.743 230.946 479.192 232.591 477.18 233.775C475.179 234.947 472.8 235.533 470.042 235.533ZM470.078 229.673C471.332 229.673 472.38 229.318 473.22 228.608C474.061 227.886 474.694 226.903 475.12 225.661C475.558 224.418 475.777 223.003 475.777 221.417C475.777 219.831 475.558 218.416 475.12 217.173C474.694 215.93 474.061 214.948 473.22 214.226C472.38 213.504 471.332 213.143 470.078 213.143C468.811 213.143 467.746 213.504 466.882 214.226C466.029 214.948 465.384 215.93 464.946 217.173C464.52 218.416 464.307 219.831 464.307 221.417C464.307 223.003 464.52 224.418 464.946 225.661C465.384 226.903 466.029 227.886 466.882 228.608C467.746 229.318 468.811 229.673 470.078 229.673ZM464.627 203.999C463.609 203.999 462.733 203.643 461.999 202.933C461.265 202.211 460.898 201.359 460.898 200.376C460.898 199.37 461.265 198.518 461.999 197.82C462.733 197.121 463.609 196.772 464.627 196.772C465.656 196.772 466.526 197.121 467.237 197.82C467.959 198.518 468.32 199.37 468.32 200.376C468.32 201.359 467.959 202.211 467.237 202.933C466.526 203.643 465.656 203.999 464.627 203.999ZM475.493 203.999C474.475 203.999 473.599 203.643 472.865 202.933C472.131 202.211 471.764 201.359 471.764 200.376C471.764 199.37 472.131 198.518 472.865 197.82C473.599 197.121 474.475 196.772 475.493 196.772C476.523 196.772 477.393 197.121 478.103 197.82C478.825 198.518 479.186 199.37 479.186 200.376C479.186 201.359 478.825 202.211 478.103 202.933C477.393 203.643 476.523 203.999 475.493 203.999ZM485.384 235V207.727H492.717V212.486H493.001C493.498 210.793 494.333 209.515 495.504 208.651C496.676 207.775 498.026 207.337 499.553 207.337C499.932 207.337 500.34 207.36 500.778 207.408C501.216 207.455 501.601 207.52 501.932 207.603V214.315C501.577 214.208 501.086 214.113 500.458 214.031C499.831 213.948 499.257 213.906 498.736 213.906C497.623 213.906 496.629 214.149 495.753 214.634C494.889 215.108 494.202 215.771 493.693 216.623C493.196 217.475 492.948 218.458 492.948 219.57V235H485.384ZM523.737 235.533C520.979 235.533 518.594 234.947 516.582 233.775C514.581 232.591 513.037 230.946 511.948 228.839C510.859 226.72 510.314 224.264 510.314 221.47C510.314 218.653 510.859 216.191 511.948 214.084C513.037 211.965 514.581 210.32 516.582 209.148C518.594 207.964 520.979 207.372 523.737 207.372C526.495 207.372 528.875 207.964 530.875 209.148C532.887 210.32 534.438 211.965 535.527 214.084C536.616 216.191 537.161 218.653 537.161 221.47C537.161 224.264 536.616 226.72 535.527 228.839C534.438 230.946 532.887 232.591 530.875 233.775C528.875 234.947 526.495 235.533 523.737 235.533ZM523.773 229.673C525.028 229.673 526.075 229.318 526.916 228.608C527.756 227.886 528.389 226.903 528.816 225.661C529.253 224.418 529.472 223.003 529.472 221.417C529.472 219.831 529.253 218.416 528.816 217.173C528.389 215.93 527.756 214.948 526.916 214.226C526.075 213.504 525.028 213.143 523.773 213.143C522.506 213.143 521.441 213.504 520.577 214.226C519.725 214.948 519.079 215.93 518.642 217.173C518.215 218.416 518.002 219.831 518.002 221.417C518.002 223.003 518.215 224.418 518.642 225.661C519.079 226.903 519.725 227.886 520.577 228.608C521.441 229.318 522.506 229.673 523.773 229.673ZM518.322 203.999C517.304 203.999 516.428 203.643 515.694 202.933C514.96 202.211 514.593 201.359 514.593 200.376C514.593 199.37 514.96 198.518 515.694 197.82C516.428 197.121 517.304 196.772 518.322 196.772C519.352 196.772 520.222 197.121 520.932 197.82C521.654 198.518 522.015 199.37 522.015 200.376C522.015 201.359 521.654 202.211 520.932 202.933C520.222 203.643 519.352 203.999 518.322 203.999ZM529.188 203.999C528.17 203.999 527.294 203.643 526.561 202.933C525.827 202.211 525.46 201.359 525.46 200.376C525.46 199.37 525.827 198.518 526.561 197.82C527.294 197.121 528.17 196.772 529.188 196.772C530.218 196.772 531.088 197.121 531.798 197.82C532.521 198.518 532.882 199.37 532.882 200.376C532.882 201.359 532.521 202.211 531.798 202.933C531.088 203.643 530.218 203.999 529.188 203.999ZM563.626 207.727L554.091 235H545.569L536.034 207.727H544.024L549.688 227.241H549.972L555.618 207.727H563.626ZM576.047 235.533C573.242 235.533 570.827 234.964 568.803 233.828C566.79 232.68 565.24 231.058 564.151 228.963C563.062 226.856 562.517 224.364 562.517 221.488C562.517 218.683 563.062 216.22 564.151 214.102C565.24 211.983 566.773 210.331 568.749 209.148C570.738 207.964 573.07 207.372 575.745 207.372C577.544 207.372 579.219 207.662 580.77 208.242C582.333 208.81 583.694 209.669 584.854 210.817C586.026 211.965 586.937 213.409 587.588 215.149C588.239 216.877 588.565 218.902 588.565 221.222V223.299H565.536V218.612H581.445C581.445 217.522 581.208 216.558 580.735 215.717C580.261 214.877 579.604 214.22 578.764 213.746C577.935 213.261 576.97 213.018 575.869 213.018C574.721 213.018 573.703 213.285 572.816 213.817C571.94 214.338 571.253 215.043 570.756 215.93C570.259 216.806 570.004 217.783 569.992 218.86V223.317C569.992 224.666 570.241 225.832 570.738 226.815C571.247 227.797 571.963 228.555 572.887 229.087C573.81 229.62 574.905 229.886 576.171 229.886C577.012 229.886 577.781 229.768 578.48 229.531C579.178 229.295 579.776 228.939 580.273 228.466C580.77 227.992 581.149 227.412 581.409 226.726L588.405 227.188C588.05 228.868 587.322 230.336 586.221 231.591C585.132 232.834 583.723 233.804 581.995 234.503C580.279 235.189 578.296 235.533 576.047 235.533ZM590.501 235V207.727H597.834V212.486H598.118C598.615 210.793 599.45 209.515 600.622 208.651C601.794 207.775 603.143 207.337 604.67 207.337C605.049 207.337 605.457 207.36 605.895 207.408C606.333 207.455 606.718 207.52 607.049 207.603V214.315C606.694 214.208 606.203 214.113 605.575 214.031C604.948 213.948 604.374 213.906 603.853 213.906C602.74 213.906 601.746 214.149 600.87 214.634C600.006 215.108 599.32 215.771 598.811 216.623C598.313 217.475 598.065 218.458 598.065 219.57V235H590.501ZM632.281 198.636V235H624.593V205.934H624.38L616.053 211.154V204.336L625.055 198.636H632.281ZM651.081 198.139C652.951 198.139 654.75 198.453 656.479 199.08C658.219 199.708 659.769 200.708 661.131 202.081C662.504 203.454 663.587 205.277 664.38 207.55C665.185 209.811 665.593 212.586 665.605 215.877C665.605 218.967 665.256 221.725 664.558 224.151C663.871 226.566 662.883 228.62 661.592 230.312C660.302 232.005 658.746 233.295 656.923 234.183C655.1 235.059 653.064 235.497 650.815 235.497C648.388 235.497 646.246 235.03 644.387 234.094C642.529 233.147 641.031 231.863 639.895 230.241C638.77 228.608 638.09 226.773 637.853 224.737H645.435C645.731 226.063 646.352 227.093 647.299 227.827C648.246 228.549 649.418 228.91 650.815 228.91C653.182 228.91 654.981 227.88 656.212 225.82C657.443 223.749 658.065 220.914 658.077 217.315H657.828C657.284 218.381 656.55 219.298 655.626 220.067C654.703 220.825 653.644 221.411 652.448 221.825C651.264 222.24 650.004 222.447 648.666 222.447C646.524 222.447 644.612 221.944 642.931 220.938C641.25 219.931 639.924 218.546 638.954 216.783C637.983 215.019 637.498 213.007 637.498 210.746C637.486 208.307 638.048 206.135 639.185 204.229C640.321 202.324 641.907 200.832 643.943 199.755C645.991 198.666 648.37 198.127 651.081 198.139ZM651.134 204.176C649.939 204.176 648.873 204.46 647.938 205.028C647.015 205.597 646.281 206.36 645.737 207.319C645.204 208.278 644.943 209.349 644.955 210.533C644.955 211.728 645.216 212.805 645.737 213.764C646.269 214.711 646.991 215.469 647.903 216.037C648.826 216.593 649.879 216.871 651.063 216.871C651.951 216.871 652.774 216.706 653.531 216.374C654.289 216.043 654.946 215.587 655.502 215.007C656.07 214.415 656.514 213.735 656.834 212.965C657.153 212.196 657.313 211.379 657.313 210.515C657.301 209.367 657.029 208.313 656.496 207.354C655.964 206.396 655.23 205.626 654.295 205.046C653.36 204.466 652.306 204.176 651.134 204.176ZM682.19 235.799C679.136 235.787 676.508 235.036 674.306 233.544C672.116 232.053 670.429 229.892 669.246 227.063C668.074 224.234 667.494 220.831 667.506 216.854C667.506 212.888 668.092 209.509 669.263 206.715C670.447 203.922 672.134 201.797 674.324 200.341C676.526 198.873 679.147 198.139 682.19 198.139C685.232 198.139 687.848 198.873 690.038 200.341C692.239 201.809 693.932 203.939 695.116 206.733C696.299 209.515 696.885 212.888 696.874 216.854C696.874 220.843 696.282 224.252 695.098 227.081C693.926 229.91 692.245 232.07 690.055 233.562C687.866 235.053 685.244 235.799 682.19 235.799ZM682.19 229.425C684.273 229.425 685.936 228.377 687.179 226.282C688.422 224.187 689.037 221.044 689.026 216.854C689.026 214.096 688.741 211.799 688.173 209.964C687.617 208.13 686.824 206.751 685.794 205.827C684.776 204.904 683.575 204.442 682.19 204.442C680.118 204.442 678.461 205.478 677.218 207.55C675.975 209.621 675.348 212.723 675.336 216.854C675.336 219.647 675.614 221.979 676.17 223.849C676.739 225.708 677.538 227.105 678.567 228.04C679.597 228.963 680.805 229.425 682.19 229.425ZM713.613 235.799C710.559 235.787 707.932 235.036 705.73 233.544C703.54 232.053 701.853 229.892 700.67 227.063C699.498 224.234 698.918 220.831 698.93 216.854C698.93 212.888 699.515 209.509 700.687 206.715C701.871 203.922 703.558 201.797 705.748 200.341C707.949 198.873 710.571 198.139 713.613 198.139C716.656 198.139 719.272 198.873 721.461 200.341C723.663 201.809 725.356 203.939 726.54 206.733C727.723 209.515 728.309 212.888 728.297 216.854C728.297 220.843 727.706 224.252 726.522 227.081C725.35 229.91 723.669 232.07 721.479 233.562C719.289 235.053 716.667 235.799 713.613 235.799ZM713.613 229.425C715.697 229.425 717.36 228.377 718.603 226.282C719.846 224.187 720.461 221.044 720.449 216.854C720.449 214.096 720.165 211.799 719.597 209.964C719.041 208.13 718.248 206.751 717.218 205.827C716.2 204.904 714.998 204.442 713.613 204.442C711.542 204.442 709.885 205.478 708.642 207.55C707.399 209.621 706.772 212.723 706.76 216.854C706.76 219.647 707.038 221.979 707.594 223.849C708.162 225.708 708.961 227.105 709.991 228.04C711.021 228.963 712.229 229.425 713.613 229.425ZM762.115 215.504L755.19 215.93C755.071 215.339 754.817 214.806 754.426 214.332C754.036 213.847 753.521 213.462 752.882 213.178C752.254 212.882 751.503 212.734 750.627 212.734C749.455 212.734 748.466 212.983 747.661 213.48C746.856 213.965 746.454 214.616 746.454 215.433C746.454 216.084 746.714 216.635 747.235 217.085C747.756 217.534 748.65 217.895 749.916 218.168L754.852 219.162C757.504 219.706 759.481 220.582 760.783 221.79C762.085 222.997 762.736 224.583 762.736 226.548C762.736 228.336 762.209 229.904 761.156 231.254C760.114 232.603 758.682 233.656 756.859 234.414C755.048 235.16 752.959 235.533 750.591 235.533C746.981 235.533 744.104 234.781 741.962 233.278C739.831 231.763 738.582 229.703 738.215 227.099L745.655 226.708C745.88 227.809 746.424 228.649 747.289 229.229C748.153 229.798 749.259 230.082 750.609 230.082C751.935 230.082 753 229.827 753.805 229.318C754.622 228.797 755.036 228.129 755.048 227.312C755.036 226.625 754.746 226.063 754.178 225.625C753.61 225.175 752.734 224.832 751.55 224.595L746.827 223.654C744.164 223.121 742.181 222.198 740.879 220.884C739.588 219.57 738.943 217.895 738.943 215.859C738.943 214.107 739.417 212.598 740.364 211.332C741.323 210.065 742.666 209.089 744.394 208.402C746.134 207.715 748.17 207.372 750.502 207.372C753.947 207.372 756.658 208.1 758.634 209.556C760.623 211.012 761.783 212.995 762.115 215.504ZM779.005 207.727V213.409H762.581V207.727H779.005ZM766.31 201.193H773.874V226.619C773.874 227.318 773.98 227.862 774.194 228.253C774.407 228.632 774.703 228.898 775.081 229.052C775.472 229.206 775.922 229.283 776.431 229.283C776.786 229.283 777.141 229.253 777.496 229.194C777.851 229.123 778.123 229.07 778.313 229.034L779.502 234.663C779.124 234.781 778.591 234.917 777.904 235.071C777.218 235.237 776.383 235.337 775.401 235.373C773.578 235.444 771.98 235.201 770.607 234.645C769.246 234.089 768.186 233.224 767.429 232.053C766.671 230.881 766.298 229.401 766.31 227.614V201.193ZM788.71 235.515C786.969 235.515 785.419 235.213 784.058 234.609C782.696 233.994 781.619 233.088 780.826 231.893C780.045 230.685 779.654 229.182 779.654 227.383C779.654 225.868 779.932 224.595 780.489 223.565C781.045 222.536 781.803 221.707 782.761 221.08C783.72 220.452 784.809 219.979 786.028 219.659C787.259 219.339 788.55 219.115 789.899 218.984C791.485 218.819 792.764 218.665 793.734 218.523C794.705 218.369 795.409 218.144 795.847 217.848C796.285 217.552 796.504 217.114 796.504 216.534V216.428C796.504 215.303 796.149 214.433 795.439 213.817C794.741 213.202 793.746 212.894 792.456 212.894C791.095 212.894 790.012 213.196 789.207 213.8C788.402 214.392 787.869 215.137 787.609 216.037L780.613 215.469C780.968 213.812 781.666 212.379 782.708 211.172C783.75 209.953 785.093 209.018 786.739 208.366C788.396 207.704 790.313 207.372 792.491 207.372C794.007 207.372 795.457 207.55 796.842 207.905C798.238 208.26 799.475 208.81 800.553 209.556C801.642 210.302 802.5 211.261 803.127 212.433C803.754 213.593 804.068 214.983 804.068 216.605V235H796.895V231.218H796.682C796.244 232.07 795.658 232.822 794.924 233.473C794.19 234.112 793.308 234.615 792.278 234.982C791.249 235.337 790.059 235.515 788.71 235.515ZM790.876 230.295C791.988 230.295 792.971 230.076 793.823 229.638C794.675 229.188 795.344 228.584 795.83 227.827C796.315 227.069 796.558 226.211 796.558 225.252V222.358C796.321 222.512 795.995 222.654 795.581 222.784C795.179 222.902 794.723 223.015 794.214 223.121C793.705 223.216 793.196 223.305 792.687 223.388C792.178 223.459 791.716 223.524 791.302 223.583C790.414 223.713 789.639 223.92 788.976 224.205C788.313 224.489 787.798 224.873 787.431 225.359C787.064 225.832 786.881 226.424 786.881 227.134C786.881 228.164 787.254 228.951 787.999 229.496C788.757 230.028 789.716 230.295 790.876 230.295ZM787.36 203.999C786.342 203.999 785.466 203.643 784.732 202.933C783.998 202.211 783.631 201.359 783.631 200.376C783.631 199.37 783.998 198.518 784.732 197.82C785.466 197.121 786.342 196.772 787.36 196.772C788.39 196.772 789.26 197.121 789.97 197.82C790.692 198.518 791.053 199.37 791.053 200.376C791.053 201.359 790.692 202.211 789.97 202.933C789.26 203.643 788.39 203.999 787.36 203.999ZM798.227 203.999C797.209 203.999 796.333 203.643 795.599 202.933C794.865 202.211 794.498 201.359 794.498 200.376C794.498 199.37 794.865 198.518 795.599 197.82C796.333 197.121 797.209 196.772 798.227 196.772C799.256 196.772 800.126 197.121 800.837 197.82C801.559 198.518 801.92 199.37 801.92 200.376C801.92 201.359 801.559 202.211 800.837 202.933C800.126 203.643 799.256 203.999 798.227 203.999ZM816.986 235.444C814.915 235.444 813.038 234.911 811.358 233.846C809.689 232.769 808.363 231.188 807.38 229.105C806.41 227.01 805.924 224.441 805.924 221.399C805.924 218.274 806.427 215.676 807.434 213.604C808.44 211.521 809.777 209.964 811.446 208.935C813.127 207.893 814.968 207.372 816.968 207.372C818.495 207.372 819.768 207.633 820.786 208.153C821.816 208.662 822.644 209.302 823.272 210.071C823.911 210.829 824.396 211.574 824.728 212.308H824.958V198.636H832.505V235H825.047V230.632H824.728C824.373 231.39 823.869 232.141 823.218 232.887C822.579 233.621 821.745 234.231 820.715 234.716C819.697 235.201 818.454 235.444 816.986 235.444ZM819.383 229.425C820.602 229.425 821.632 229.093 822.473 228.43C823.325 227.756 823.976 226.815 824.426 225.607C824.887 224.4 825.118 222.985 825.118 221.364C825.118 219.742 824.893 218.333 824.444 217.138C823.994 215.942 823.343 215.019 822.49 214.368C821.638 213.717 820.602 213.391 819.383 213.391C818.14 213.391 817.093 213.729 816.24 214.403C815.388 215.078 814.743 216.013 814.305 217.209C813.867 218.404 813.648 219.789 813.648 221.364C813.648 222.95 813.867 224.353 814.305 225.572C814.755 226.779 815.4 227.726 816.24 228.413C817.093 229.087 818.14 229.425 819.383 229.425ZM848.153 235.533C845.347 235.533 842.932 234.964 840.908 233.828C838.896 232.68 837.345 231.058 836.256 228.963C835.167 226.856 834.623 224.364 834.623 221.488C834.623 218.683 835.167 216.22 836.256 214.102C837.345 211.983 838.878 210.331 840.855 209.148C842.844 207.964 845.175 207.372 847.851 207.372C849.65 207.372 851.325 207.662 852.876 208.242C854.438 208.81 855.799 209.669 856.959 210.817C858.131 211.965 859.043 213.409 859.694 215.149C860.345 216.877 860.67 218.902 860.67 221.222V223.299H837.641V218.612H853.55C853.55 217.522 853.314 216.558 852.84 215.717C852.367 214.877 851.71 214.22 850.869 213.746C850.041 213.261 849.076 213.018 847.975 213.018C846.827 213.018 845.809 213.285 844.921 213.817C844.045 214.338 843.358 215.043 842.861 215.93C842.364 216.806 842.11 217.783 842.098 218.86V223.317C842.098 224.666 842.346 225.832 842.844 226.815C843.353 227.797 844.069 228.555 844.992 229.087C845.915 229.62 847.01 229.886 848.277 229.886C849.117 229.886 849.887 229.768 850.585 229.531C851.283 229.295 851.881 228.939 852.378 228.466C852.876 227.992 853.254 227.412 853.515 226.726L860.51 227.188C860.155 228.868 859.427 230.336 858.327 231.591C857.238 232.834 855.829 233.804 854.101 234.503C852.384 235.189 850.402 235.533 848.153 235.533ZM862.606 235V207.727H869.939V212.486H870.224C870.721 210.793 871.555 209.515 872.727 208.651C873.899 207.775 875.248 207.337 876.775 207.337C877.154 207.337 877.563 207.36 878.001 207.408C878.439 207.455 878.823 207.52 879.155 207.603V214.315C878.8 214.208 878.308 214.113 877.681 214.031C877.054 213.948 876.479 213.906 875.959 213.906C874.846 213.906 873.852 214.149 872.976 214.634C872.112 215.108 871.425 215.771 870.916 216.623C870.419 217.475 870.17 218.458 870.17 219.57V235H862.606ZM881.362 235.462C880.19 235.462 879.183 235.047 878.343 234.219C877.514 233.378 877.1 232.372 877.1 231.2C877.1 230.04 877.514 229.046 878.343 228.217C879.183 227.389 880.19 226.974 881.362 226.974C882.498 226.974 883.492 227.389 884.344 228.217C885.197 229.046 885.623 230.04 885.623 231.2C885.623 231.982 885.422 232.698 885.019 233.349C884.629 233.988 884.114 234.503 883.474 234.893C882.835 235.272 882.131 235.462 881.362 235.462Z" fill="white"/>
</svg>
